REM DIRINDEX 1\2,1\3,1\4,1\5
REM DIRNAME cjc044,folder01,folder02,folder03,folder04
TITLE ""
FILE "1800_127.mp3" MP3
  TRACK 01 AUDIO
    TITLE "2:cjc044_3741"
    INDEX 01 00:00:00
  TRACK 02 AUDIO
    TITLE "0:"
    INDEX 01 00:00:68
  TRACK 03 AUDIO
    TITLE "3:cjc044_3742"
    INDEX 01 00:01:58
  TRACK 04 AUDIO
    TITLE "0:"
    INDEX 01 00:02:55
  TRACK 05 AUDIO
    TITLE "4:cjc044_3743"
    INDEX 01 00:03:39
  TRACK 06 AUDIO
    TITLE "0:"
    INDEX 01 00:04:42
  TRACK 07 AUDIO
    TITLE "5:cjc044_3744"
    INDEX 01 00:05:34
  TRACK 08 AUDIO
    TITLE "0:"
    INDEX 01 00:08:36
  TRACK 09 AUDIO
    TITLE "2:cjc044_3745"
    INDEX 01 00:10:23
  TRACK 10 AUDIO
    TITLE "0:"
    INDEX 01 00:11:21
  TRACK 11 AUDIO
    TITLE "3:cjc044_3746"
    INDEX 01 00:12:12
  TRACK 12 AUDIO
    TITLE "0:"
    INDEX 01 00:13:30
  TRACK 13 AUDIO
    TITLE "4:cjc044_3747"
    INDEX 01 00:14:11
  TRACK 14 AUDIO
    TITLE "0:"
    INDEX 01 00:15:09
  TRACK 15 AUDIO
    TITLE "5:cjc044_3748"
    INDEX 01 00:15:72
  TRACK 16 AUDIO
    TITLE "0:"
    INDEX 01 00:18:33
  TRACK 17 AUDIO
    TITLE "2:cjc044_3749"
    INDEX 01 00:20:20
  TRACK 18 AUDIO
    TITLE "0:"
    INDEX 01 00:21:33
  TRACK 19 AUDIO
    TITLE "3:cjc044_3750"
    INDEX 01 00:22:21
  TRACK 20 AUDIO
    TITLE "0:"
    INDEX 01 00:24:02
  TRACK 21 AUDIO
    TITLE "4:cjc044_3751"
    INDEX 01 00:24:63
  TRACK 22 AUDIO
    TITLE "0:"
    INDEX 01 00:26:03
  TRACK 23 AUDIO
    TITLE "5:cjc044_3752"
    INDEX 01 00:26:54
  TRACK 24 AUDIO
    TITLE "0:"
    INDEX 01 00:30:36
  TRACK 25 AUDIO
    TITLE "2:cjc044_3753"
    INDEX 01 00:32:19
  TRACK 26 AUDIO
    TITLE "0:"
    INDEX 01 00:33:30
  TRACK 27 AUDIO
    TITLE "3:cjc044_3754"
    INDEX 01 00:34:16
  TRACK 28 AUDIO
    TITLE "0:"
    INDEX 01 00:36:60
  TRACK 29 AUDIO
    TITLE "4:cjc044_3755"
    INDEX 01 00:37:40
  TRACK 30 AUDIO
    TITLE "0:"
    INDEX 01 00:38:51
  TRACK 31 AUDIO
    TITLE "5:cjc044_3756"
    INDEX 01 00:39:35
  TRACK 32 AUDIO
    TITLE "0:"
    INDEX 01 00:42:63
  TRACK 33 AUDIO
    TITLE "2:cjc044_3757"
    INDEX 01 00:44:52
  TRACK 34 AUDIO
    TITLE "0:"
    INDEX 01 00:45:57
  TRACK 35 AUDIO
    TITLE "3:cjc044_3758"
    INDEX 01 00:46:39
  TRACK 36 AUDIO
    TITLE "0:"
    INDEX 01 00:47:62
  TRACK 37 AUDIO
    TITLE "4:cjc044_3759"
    INDEX 01 00:48:46
  TRACK 38 AUDIO
    TITLE "0:"
    INDEX 01 00:49:51
  TRACK 39 AUDIO
    TITLE "5:cjc044_3760"
    INDEX 01 00:50:29
  TRACK 40 AUDIO
    TITLE "0:"
    INDEX 01 00:53:39
  TRACK 41 AUDIO
    TITLE "2:cjc044_3761"
    INDEX 01 00:55:30
  TRACK 42 AUDIO
    TITLE "0:"
    INDEX 01 00:56:25
  TRACK 43 AUDIO
    TITLE "3:cjc044_3762"
    INDEX 01 00:57:15
  TRACK 44 AUDIO
    TITLE "0:"
    INDEX 01 00:58:09
  TRACK 45 AUDIO
    TITLE "4:cjc044_3763"
    INDEX 01 00:58:64
  TRACK 46 AUDIO
    TITLE "0:"
    INDEX 01 00:59:57
  TRACK 47 AUDIO
    TITLE "5:cjc044_3764"
    INDEX 01 01:00:47
  TRACK 48 AUDIO
    TITLE "0:"
    INDEX 01 01:03:71
  TRACK 49 AUDIO
    TITLE "2:cjc044_3765"
    INDEX 01 01:05:58
  TRACK 50 AUDIO
    TITLE "0:"
    INDEX 01 01:06:57
  TRACK 51 AUDIO
    TITLE "3:cjc044_3766"
    INDEX 01 01:07:41
  TRACK 52 AUDIO
    TITLE "0:"
    INDEX 01 01:08:27
  TRACK 53 AUDIO
    TITLE "4:cjc044_3767"
    INDEX 01 01:09:10
  TRACK 54 AUDIO
    TITLE "0:"
    INDEX 01 01:10:12
  TRACK 55 AUDIO
    TITLE "5:cjc044_3768"
    INDEX 01 01:11:00
  TRACK 56 AUDIO
    TITLE "0:"
    INDEX 01 01:13:69
  TRACK 57 AUDIO
    TITLE "2:cjc044_3769"
    INDEX 01 01:15:56
  TRACK 58 AUDIO
    TITLE "0:"
    INDEX 01 01:16:67
  TRACK 59 AUDIO
    TITLE "3:cjc044_3770"
    INDEX 01 01:17:57
  TRACK 60 AUDIO
    TITLE "0:"
    INDEX 01 01:18:66
  TRACK 61 AUDIO
    TITLE "4:cjc044_3771"
    INDEX 01 01:19:48
  TRACK 62 AUDIO
    TITLE "0:"
    INDEX 01 01:20:61
  TRACK 63 AUDIO
    TITLE "5:cjc044_3772"
    INDEX 01 01:21:45
  TRACK 64 AUDIO
    TITLE "0:"
    INDEX 01 01:24:47
  TRACK 65 AUDIO
    TITLE "2:cjc044_3773"
    INDEX 01 01:26:34
  TRACK 66 AUDIO
    TITLE "0:"
    INDEX 01 01:27:51
  TRACK 67 AUDIO
    TITLE "3:cjc044_3774"
    INDEX 01 01:28:43
  TRACK 68 AUDIO
    TITLE "0:"
    INDEX 01 01:29:46
  TRACK 69 AUDIO
    TITLE "4:cjc044_3775"
    INDEX 01 01:30:26
  TRACK 70 AUDIO
    TITLE "0:"
    INDEX 01 01:31:43
  TRACK 71 AUDIO
    TITLE "5:cjc044_3776"
    INDEX 01 01:32:19
  TRACK 72 AUDIO
    TITLE "0:"
    INDEX 01 01:36:07
